<svg id="visual" viewBox="0 0 960 540" width="960" height="540" xmlns="http://www.w3.org/2000/svg" xmlns:xlink="http://www.w3.org/1999/xlink" version="1.1"><rect x="0" y="0" width="960" height="540" fill="#fbede9"></rect><g transform="translate(957.5692849241656 520.5832462904892)"><path d="M154.6 -254.7C199.4 -241.8 234.4 -198.6 269.6 -151.2C304.9 -103.7 340.4 -51.8 353.3 7.4C366.1 66.7 356.3 133.3 322.9 184C289.4 234.7 232.5 269.3 174.7 272.8C117 276.3 58.5 248.7 -3.6 254.9C-65.7 261.1 -131.3 301.1 -189.8 298.1C-248.2 295 -299.5 248.7 -328.5 191.9C-357.5 135 -364.2 67.5 -335 16.9C-305.8 -33.8 -240.6 -67.5 -204.6 -112.2C-168.6 -157 -161.8 -212.7 -132.6 -234.7C-103.3 -256.6 -51.7 -244.8 1.6 -247.6C54.8 -250.3 109.7 -267.6 154.6 -254.7" fill="#e7ae8f"></path></g></svg>