<svg xmlns="http://www.w3.org/2000/svg" viewBox="0 0 512 512">
  <path fill="#add2c6"
    d="M484.5,457h-41V244.5A27.54,27.54,0,0,0,416,217H323.5V191.1a107.5,107.5,0,1,0-135,0V277H96a27.54,27.54,0,0,0-27.5,27.5V457h-41A27.54,27.54,0,0,0,0,484.5v20A7.5,7.5,0,0,0,7.5,512h497a7.5,7.5,0,0,0,7.5-7.5v-20A27.54,27.54,0,0,0,484.5,457ZM416,232a12.52,12.52,0,0,1,12.5,12.5V457h-105V232ZM163.5,107.5A92.5,92.5,0,1,1,256,200,92.61,92.61,0,0,1,163.5,107.5ZM256,215a106.88,106.88,0,0,0,52.5-13.72V457h-105V201.28A106.88,106.88,0,0,0,256,215ZM83.5,304.5A12.52,12.52,0,0,1,96,292h92.5V457H83.5ZM497,497H15V484.5A12.52,12.52,0,0,1,27.5,472h457A12.52,12.52,0,0,1,497,484.5Z" />
  <path fill="#add2c6"
    d="M216,123.11a2.82,2.82,0,0,1,.81,2.48l-2.86,16.63A17.81,17.81,0,0,0,239.76,161l14.94-7.85a2.78,2.78,0,0,1,2.6,0L272.24,161a17.8,17.8,0,0,0,25.83-18.77l-2.85-16.63a2.82,2.82,0,0,1,.81-2.48l12.08-11.78A17.8,17.8,0,0,0,298.24,81l-16.69-2.43A2.79,2.79,0,0,1,279.43,77L272,61.87a17.81,17.81,0,0,0-31.94,0L232.57,77a2.79,2.79,0,0,1-2.11,1.53L213.76,81a17.8,17.8,0,0,0-9.87,30.37Zm-2.32-25.4a2.69,2.69,0,0,1,2.26-1.91l16.7-2.42A17.85,17.85,0,0,0,246,83.64l7.47-15.13a2.79,2.79,0,0,1,5,0h0L266,83.64a17.85,17.85,0,0,0,13.41,9.74l16.7,2.42a2.81,2.81,0,0,1,1.55,4.79l-12.08,11.78a17.79,17.79,0,0,0-5.12,15.76l2.85,16.63a2.8,2.8,0,0,1-4.07,3l-14.93-7.85a17.79,17.79,0,0,0-16.58,0l-14.93,7.85a2.8,2.8,0,0,1-4.07-3l2.85-16.63a17.79,17.79,0,0,0-5.12-15.76l-12.08-11.78A2.7,2.7,0,0,1,213.65,97.71Z" />
</svg>