<svg xmlns="http://www.w3.org/2000/svg" viewBox="0 0 25 25"><g data-name="Target 02"><path fill="#add2c6" d="M11.5 16a2.5 2.5 0 0 1-.16-5 .5.5 0 0 1 .06 1A1.5 1.5 0 1 0 13 13.6a.51.51 0 0 1 .53-.47.5.5 0 0 1 .47.53A2.5 2.5 0 0 1 11.5 16zM7.49 11a.54.54 0 0 1-.3-.1.5.5 0 0 1-.1-.7A5.51 5.51 0 0 1 11.5 8a5.44 5.44 0 0 1 2.55.63.5.5 0 0 1-.48.88 4.48 4.48 0 0 0-5.68 1.31A.51.51 0 0 1 7.49 11z"/><path fill="#add2c6" d="M11.5,19A5.51,5.51,0,0,1,6,13.5a5.78,5.78,0,0,1,.11-1.1.5.5,0,1,1,1,.2,4.5,4.5,0,1,0,8.91.9,4.43,4.43,0,0,0-.51-2.07.5.5,0,1,1,.88-.48A5.44,5.44,0,0,1,17,13.5,5.51,5.51,0,0,1,11.5,19Z"/><path fill="#add2c6" d="M11.5,22a8.5,8.5,0,0,1,0-17,8.37,8.37,0,0,1,2.78.47.5.5,0,1,1-.34.94A7.35,7.35,0,0,0,11.5,6,7.5,7.5,0,1,0,19,13.5a7.35,7.35,0,0,0-.41-2.44.5.5,0,1,1,.94-.34A8.37,8.37,0,0,1,20,13.5,8.51,8.51,0,0,1,11.5,22Z"/><path fill="#add2c6" d="M11.5,14a.47.47,0,0,1-.35-.15.48.48,0,0,1,0-.7l8.42-8.42a.49.49,0,1,1,.7.7l-8.42,8.42A.47.47,0,0,1,11.5,14Z"/><path fill="#add2c6" d="M18.57,9.76l-.11,0-2.3-.53a.47.47,0,0,1-.37-.37l-.53-2.3a.49.49,0,0,1,.13-.46l2.83-2.83a.49.49,0,0,1,.49-.13.5.5,0,0,1,.35.37l.46,2,2,.46a.5.5,0,0,1-.22,1L19,6.39A.52.52,0,0,1,18.61,6l-.32-1.42-2,2,.4,1.72,1.72.4L19.7,7.42a.5.5,0,0,1,.7,0,.5.5,0,0,1,0,.71L18.92,9.61A.47.47,0,0,1,18.57,9.76Z"/></g></svg>